<svg width="24" height="18" viewBox="0 0 24 18" fill="none" xmlns="http://www.w3.org/2000/svg">
<path d="M0.799988 5.8H23.2H0.799988ZM3.19999 12.2H12.8H3.19999ZM16 12.2H20.8H16ZM0.799988 2.6V15.4C0.799988 15.8243 0.968559 16.2313 1.26862 16.5314C1.56868 16.8314 1.97564 17 2.39999 17H21.6C22.0243 17 22.4313 16.8314 22.7314 16.5314C23.0314 16.2313 23.2 15.8243 23.2 15.4V2.6C23.2 2.17565 23.0314 1.76869 22.7314 1.46863C22.4313 1.16857 22.0243 1 21.6 1H2.39999C1.97564 1 1.56868 1.16857 1.26862 1.46863C0.968559 1.76869 0.799988 2.17565 0.799988 2.6V2.6Z" stroke="#FD9F01" stroke-width="1.6"/>
</svg>
