<svg width="13" height="15" viewBox="0 0 13 15" fill="none" xmlns="http://www.w3.org/2000/svg">
<path d="M3.68489 13.3478C1.65279 12.4897 0.697941 10.1389 1.55607 8.1068L3.73461 2.94793C3.84935 2.67624 4.16222 2.5496 4.43337 2.6641C4.70461 2.77865 4.83202 3.09121 4.71729 3.3629L2.53875 8.52177C1.90966 10.0115 2.6097 11.7359 4.09986 12.3651C5.59001 12.9944 7.31413 12.2937 7.94322 10.804L10.2255 5.39946C10.6259 4.45125 10.1803 3.35417 9.2321 2.95374C8.2838 2.55328 7.18672 2.9989 6.78629 3.94712L4.71147 8.86039C4.5399 9.26666 4.73087 9.73699 5.13723 9.90859C5.5436 10.0802 6.01387 9.8891 6.18543 9.48283L8.1565 4.81525C8.27124 4.54356 8.58411 4.41692 8.85526 4.53142C9.1265 4.64596 9.25391 4.95853 9.13918 5.23022L7.16811 9.8978C6.76768 10.846 5.67051 11.2916 4.7223 10.8912C3.77408 10.4908 3.32838 9.39363 3.7288 8.44542L5.80362 3.53214C6.43267 2.04253 8.15683 1.34176 9.64707 1.97107C11.1372 2.60035 11.8372 4.32482 11.2082 5.81443L8.92589 11.219C8.06776 13.2511 5.71698 14.2059 3.68489 13.3478Z" fill="#043379"/>
</svg>
