<svg width="22" height="23" viewBox="0 0 22 23" fill="none" xmlns="http://www.w3.org/2000/svg">
<path d="M9.497 0.581987C9.90998 0.210938 10.4456 0.00567627 11.0008 0.00567627C11.5559 0.00567627 12.0915 0.210938 12.5045 0.581987L20.7545 7.99499C20.9891 8.20593 21.1767 8.46383 21.3051 8.75197C21.4335 9.0401 21.4999 9.35203 21.5 9.66749V20.25C21.5 20.8467 21.2629 21.419 20.841 21.841C20.419 22.2629 19.8467 22.5 19.25 22.5H15.5C14.9033 22.5 14.331 22.2629 13.909 21.841C13.4871 21.419 13.25 20.8467 13.25 20.25V15C13.25 14.8011 13.171 14.6103 13.0303 14.4697C12.8897 14.329 12.6989 14.25 12.5 14.25H9.5C9.30109 14.25 9.11032 14.329 8.96967 14.4697C8.82902 14.6103 8.75 14.8011 8.75 15V20.25C8.75 20.8467 8.51295 21.419 8.09099 21.841C7.66903 22.2629 7.09674 22.5 6.5 22.5H2.75C2.15326 22.5 1.58097 22.2629 1.15901 21.841C0.737053 21.419 0.5 20.8467 0.5 20.25V9.66749C0.5 9.02999 0.77 8.42249 1.247 7.99499L9.497 0.581987ZM11.501 1.69799C11.3634 1.57444 11.1849 1.50611 11 1.50611C10.8151 1.50611 10.6366 1.57444 10.499 1.69799L2.249 9.11099C2.17085 9.18114 2.1083 9.26693 2.0654 9.3628C2.02251 9.45866 2.00023 9.56246 2 9.66749V20.25C2 20.4489 2.07902 20.6397 2.21967 20.7803C2.36032 20.921 2.55109 21 2.75 21H6.5C6.69891 21 6.88968 20.921 7.03033 20.7803C7.17098 20.6397 7.25 20.4489 7.25 20.25V15C7.25 14.4033 7.48705 13.831 7.90901 13.409C8.33097 12.987 8.90326 12.75 9.5 12.75H12.5C13.0967 12.75 13.669 12.987 14.091 13.409C14.5129 13.831 14.75 14.4033 14.75 15V20.25C14.75 20.4489 14.829 20.6397 14.9697 20.7803C15.1103 20.921 15.3011 21 15.5 21H19.25C19.4489 21 19.6397 20.921 19.7803 20.7803C19.921 20.6397 20 20.4489 20 20.25V9.66749C19.9998 9.56246 19.9775 9.45866 19.9346 9.3628C19.8917 9.26693 19.8292 9.18114 19.751 9.11099L11.501 1.69799Z" fill="#747474"/>
</svg>
