<svg width="24" height="24" viewBox="0 0 24 24" fill="none" xmlns="http://www.w3.org/2000/svg">
<path d="M10.5 21.75C10.5 22.575 11.175 23.25 12 23.25C12.825 23.25 13.5 22.575 13.5 21.75H10.5Z" fill="#616466"/>
<path d="M9.3375 18H14.625C14.925 16.3875 15.9375 14.8125 16.9875 13.1625C18.225 11.25 19.5 9.2625 19.5 7.35C19.5 3.7125 16.125 0.75 12 0.75C7.875 0.75 4.5 3.7125 4.5 7.35C4.5 9.2625 5.775 11.25 6.975 13.1625C8.025 14.8125 9.0375 16.3875 9.3375 18Z" fill="#FFCE31"/>
<path d="M9.89999 12.6001C9.93749 12.8251 10.0125 13.0501 10.05 13.2751C10.1625 13.6876 10.2375 14.0626 10.35 14.4751C10.6875 15.9001 10.9875 17.1001 11.25 18.0376H11.475C11.2875 17.1001 11.025 15.8626 10.6875 14.4376C10.6125 14.0626 10.5 13.6501 10.425 13.2376C10.3875 13.0501 10.35 12.8251 10.275 12.6376C10.575 12.5626 11.2875 12.3376 12 11.5501C12.7125 12.3376 13.425 12.5626 13.725 12.6376C13.6875 12.8626 13.65 13.0501 13.575 13.2376C13.5 13.6501 13.3875 14.0626 13.3125 14.4376C12.975 15.8626 12.7125 17.1001 12.525 18.0376H12.75C12.975 17.1001 13.3125 15.9001 13.65 14.4751C13.725 14.1001 13.8375 13.6876 13.95 13.2751C13.9875 13.0501 14.0625 12.8251 14.1 12.6001C14.4 12.5626 14.6625 12.4876 14.85 12.3001C15.075 12.0751 15.1875 11.8126 15.1125 11.5126C15.075 11.3626 15 11.1751 14.775 11.1376C14.6625 11.1001 14.5875 11.1001 14.475 11.1376C14.3625 11.1751 14.2875 11.2501 14.25 11.2876C14.0625 11.5126 13.9875 11.7376 13.9125 11.9626L13.8 12.3001C13.8 12.3001 13.5 12.3376 12.7875 11.8501C12.4125 11.5876 12.3 11.4001 12.1875 11.2876C12.3 11.1376 12.4125 11.0251 12.525 10.8376C12.5625 10.7251 12.6 10.6501 12.6375 10.5001C12.6375 10.3876 12.6375 10.2376 12.5625 10.1251C12.4875 10.0126 12.4125 9.9001 12.225 9.8251C12.15 9.7876 12.075 9.7876 12 9.7876C11.925 9.7876 11.85 9.7876 11.775 9.8251C11.625 9.9001 11.5125 10.0126 11.4375 10.1251C11.3625 10.2376 11.3625 10.3876 11.3625 10.5001C11.3625 10.6126 11.4 10.7251 11.475 10.8376C11.55 11.0251 11.6625 11.1751 11.8125 11.2876C11.7 11.4001 11.5875 11.5876 11.2125 11.8501C10.5375 12.3001 10.2 12.3001 10.2 12.3001L10.0875 11.9626C10.0125 11.7376 9.93749 11.5126 9.74999 11.2876C9.71249 11.2501 9.63749 11.1751 9.52499 11.1376C9.41249 11.1001 9.3 11.1001 9.22499 11.1376C8.99999 11.2126 8.925 11.4001 8.8875 11.5126C8.85 11.8126 8.96249 12.0751 9.14999 12.3001C9.37499 12.4876 9.63749 12.5626 9.89999 12.6001ZM14.25 12.0376C14.325 11.8501 14.4 11.6251 14.55 11.5126C14.5875 11.4751 14.625 11.4751 14.625 11.4751H14.7C14.7375 11.4751 14.775 11.5126 14.8125 11.6251C14.85 11.7751 14.775 12.0001 14.625 12.1126C14.5125 12.1876 14.3625 12.2626 14.2125 12.3001C14.2125 12.1876 14.2125 12.1126 14.25 12.0376ZM11.775 10.2376C11.85 10.1626 11.925 10.0876 12 10.0876C12.075 10.0876 12.15 10.1251 12.225 10.2376C12.3 10.3501 12.2625 10.5001 12.1875 10.6501C12.15 10.7626 12.075 10.8751 12 10.9501C11.925 10.8376 11.85 10.7626 11.8125 10.6501C11.7375 10.5376 11.7 10.3876 11.775 10.2376ZM9.22499 11.5501C9.22499 11.4751 9.26249 11.4376 9.33749 11.4001H9.4125C9.4125 11.4001 9.44999 11.4376 9.48749 11.4376C9.59999 11.5501 9.7125 11.7751 9.7875 11.9626C9.825 12.0376 9.82499 12.1126 9.86249 12.1876C9.71249 12.1501 9.5625 12.1126 9.45 12.0001C9.3 11.9251 9.22499 11.7376 9.22499 11.5501Z" fill="#C79127"/>
<path d="M9.33749 18.75H14.7V19.425H9.33749V18.75Z" fill="#94989B"/>
<path d="M9.71249 20.1001H14.325V20.7751H9.71249V20.1001Z" fill="#94989B"/>
<path d="M9.71249 19.4248H14.325V20.0998H9.71249V19.4248Z" fill="#616466"/>
<path d="M14.7 18.75L9.71249 20.1V20.8125L14.7 19.425V18.75Z" fill="#94989B"/>
<path d="M10.0875 21.4873H13.95V22.1623H10.0875V21.4873Z" fill="#94989B"/>
<path d="M10.0875 20.8125H13.95V21.4875H10.0875V20.8125Z" fill="#616466"/>
<path d="M14.325 20.1001L10.0875 21.4876V22.2001L14.325 20.8126V20.1001Z" fill="#94989B"/>
</svg>
