<svg width="16" height="22" viewBox="0 0 16 22" fill="none" xmlns="http://www.w3.org/2000/svg">
<path d="M2.72867 1.31686L4.38895 0.816292C4.9369 0.651349 5.52615 0.691369 6.04676 0.928887C6.56738 1.16641 6.98381 1.5852 7.21838 2.10715L8.38238 4.69572C8.58441 5.1448 8.64072 5.64587 8.54341 6.12859C8.44609 6.6113 8.20005 7.05142 7.83981 7.38715L6.0681 9.03801C5.83067 9.26344 6.01067 10.142 6.8781 11.6454C7.74638 13.1497 8.41753 13.7446 8.72695 13.652L11.0481 12.9423C11.5186 12.7984 12.0223 12.8053 12.4887 12.9621C12.9551 13.1189 13.3607 13.4177 13.6487 13.8166L15.303 16.1094C15.6371 16.5724 15.7918 17.141 15.7384 17.7095C15.6849 18.2779 15.427 18.8077 15.0124 19.2003L13.7335 20.4114C13.3207 20.8024 12.8115 21.0769 12.258 21.2068C11.7045 21.3368 11.1264 21.3176 10.5827 21.1511C7.90324 20.3309 5.42181 17.8966 3.10495 13.8826C0.782954 9.86258 -0.0939029 6.47172 0.51724 3.70144C0.640501 3.14322 0.910403 2.62798 1.29912 2.20883C1.68784 1.78968 2.18131 1.48177 2.72867 1.31686Z" fill="#02538B"/>
</svg>
