<svg width="24" height="25" viewBox="0 0 24 25" fill="none" xmlns="http://www.w3.org/2000/svg">
<g clip-path="url(#clip0)">
<path d="M18.5954 8.48186H14.8029C14.2454 8.48312 13.7511 8.12381 13.5802 7.59333L12.4081 3.98605C12.3501 3.81027 12.186 3.69141 12.0008 3.69141C11.8156 3.69141 11.6516 3.81027 11.5936 3.98605L10.4215 7.59291C10.2506 8.12402 9.75586 8.48333 9.19797 8.48186H5.40549C5.21966 8.48166 5.05476 8.60114 4.99721 8.77797C4.93988 8.9548 5.00286 9.14858 5.15353 9.2576L8.22175 11.486C8.67334 11.8129 8.8621 12.3938 8.68883 12.9235L7.51716 16.5303C7.45941 16.707 7.52198 16.9007 7.67223 17.01C7.82248 17.1194 8.02588 17.1196 8.17634 17.0104L11.2444 14.7819C11.6949 14.4532 12.3059 14.4532 12.7565 14.7819L15.8245 17.0104C15.9748 17.1194 16.1782 17.1192 16.3284 17.01C16.4784 16.9007 16.5412 16.7074 16.4837 16.5308L15.312 12.9241C15.1387 12.3945 15.3277 11.8135 15.7791 11.4871L18.8473 9.25844C18.9986 9.14962 19.0624 8.95543 19.0049 8.77818C18.9473 8.60093 18.7816 8.48103 18.5954 8.48186Z" fill="white"/>
<path d="M24 3.76855C23.9981 2.11244 22.6561 0.770438 21 0.768555H3C1.34389 0.770438 0.00188337 2.11244 0 3.76855V17.4828C0.00188337 19.139 1.34389 20.481 3 20.4828H4.71429C4.85659 20.4828 4.98947 20.5534 5.0692 20.671C5.14893 20.7888 5.16525 20.9384 5.11251 21.0705L3.80483 24.34L11.8156 20.5257C11.8732 20.4979 11.9362 20.4833 12 20.4828H21C22.6561 20.481 23.9981 19.139 24 17.4828V3.76855ZM19.3508 9.95145L16.2828 12.1801C16.1323 12.2891 16.0693 12.4827 16.1267 12.6593L17.2988 16.2666C17.4773 16.7962 17.2875 17.3803 16.8317 17.704C16.383 18.0376 15.7688 18.0376 15.3202 17.704L12.252 15.4754C12.1017 15.3661 11.8983 15.3661 11.748 15.4754L8.67983 17.704C8.22928 18.0315 7.61886 18.0315 7.16832 17.7042C6.71756 17.3767 6.52902 16.7965 6.70124 16.2666L7.87333 12.6597C7.93087 12.4829 7.86789 12.2891 7.71722 12.1801L4.6492 9.95145C4.19845 9.62416 4.00991 9.04367 4.18213 8.51402C4.35435 7.98417 4.84801 7.62549 5.40506 7.6257H9.19755C9.38316 7.6257 9.54764 7.50642 9.60519 7.33001L10.7769 3.72273C10.9487 3.19245 11.4425 2.83315 12 2.83315C12.5575 2.83315 13.0513 3.19245 13.2231 3.72273L14.3948 7.33001C14.4524 7.50642 14.6168 7.6257 14.8025 7.6257H18.5949C19.152 7.62549 19.6456 7.98417 19.8179 8.51402C19.9901 9.04367 19.8015 9.62416 19.3508 9.95145Z" fill="white"/>
</g>
<defs>
<clipPath id="clip0">
<rect width="24" height="24" fill="white" transform="translate(0 0.553711)"/>
</clipPath>
</defs>
</svg>
