<svg width="23" height="18" viewBox="0 0 23 18" fill="none" xmlns="http://www.w3.org/2000/svg">
<path d="M18.5625 6C18.5625 6.14918 18.5032 6.29226 18.3977 6.39775C18.2923 6.50324 18.1492 6.5625 18 6.5625H8.25C8.10082 6.5625 7.95774 6.50324 7.85225 6.39775C7.74676 6.29226 7.6875 6.14918 7.6875 6C7.6875 5.85082 7.74676 5.70774 7.85225 5.60225C7.95774 5.49676 8.10082 5.4375 8.25 5.4375H18C18.1492 5.4375 18.2923 5.49676 18.3977 5.60225C18.5032 5.70774 18.5625 5.85082 18.5625 6ZM18 8.4375H8.25C8.10082 8.4375 7.95774 8.49676 7.85225 8.60225C7.74676 8.70774 7.6875 8.85082 7.6875 9C7.6875 9.14918 7.74676 9.29226 7.85225 9.39775C7.95774 9.50324 8.10082 9.5625 8.25 9.5625H18C18.1492 9.5625 18.2923 9.50324 18.3977 9.39775C18.5032 9.29226 18.5625 9.14918 18.5625 9C18.5625 8.85082 18.5032 8.70774 18.3977 8.60225C18.2923 8.49676 18.1492 8.4375 18 8.4375ZM18 11.4375H8.25C8.10082 11.4375 7.95774 11.4968 7.85225 11.6023C7.74676 11.7077 7.6875 11.8508 7.6875 12C7.6875 12.1492 7.74676 12.2923 7.85225 12.3977C7.95774 12.5032 8.10082 12.5625 8.25 12.5625H18C18.1492 12.5625 18.2923 12.5032 18.3977 12.3977C18.5032 12.2923 18.5625 12.1492 18.5625 12C18.5625 11.8508 18.5032 11.7077 18.3977 11.6023C18.2923 11.4968 18.1492 11.4375 18 11.4375ZM22.3125 2.25V15C22.3119 15.5468 22.0944 16.0711 21.7077 16.4577C21.3211 16.8444 20.7968 17.0619 20.25 17.0625H3C2.45473 17.0619 1.93184 16.8456 1.54544 16.4609C1.15904 16.0761 0.940495 15.5542 0.9375 15.0089V4.5C0.9375 4.35082 0.996763 4.20774 1.10225 4.10225C1.20774 3.99676 1.35082 3.9375 1.5 3.9375C1.64918 3.9375 1.79226 3.99676 1.89775 4.10225C2.00324 4.20774 2.0625 4.35082 2.0625 4.5V15C2.0625 15.2486 2.16127 15.4871 2.33709 15.6629C2.5129 15.8387 2.75136 15.9375 3 15.9375C3.24864 15.9375 3.4871 15.8387 3.66291 15.6629C3.83873 15.4871 3.9375 15.2486 3.9375 15V2.25C3.9379 1.90203 4.07631 1.56842 4.32236 1.32236C4.56842 1.07631 4.90203 0.937897 5.25 0.9375H21C21.348 0.937897 21.6816 1.07631 21.9276 1.32236C22.1737 1.56842 22.3121 1.90203 22.3125 2.25ZM21.1875 2.25C21.1874 2.20029 21.1676 2.15265 21.1325 2.1175C21.0974 2.08235 21.0497 2.06257 21 2.0625H5.25C5.20029 2.06257 5.15265 2.08235 5.1175 2.1175C5.08235 2.15265 5.06257 2.20029 5.0625 2.25V15C5.06293 15.326 4.98557 15.6474 4.83684 15.9375H20.25C20.4985 15.9372 20.7368 15.8383 20.9126 15.6626C21.0883 15.4868 21.1872 15.2485 21.1875 15V2.25Z" fill="#FD9F01"/>
</svg>
